<svg width="17" height="15" viewBox="0 0 17 15" fill="none" xmlns="http://www.w3.org/2000/svg">
<path d="M1.15733 14.625C1.01219 14.625 0.880244 14.5888 0.761494 14.5165C0.642744 14.4442 0.550383 14.3484 0.484411 14.2292C0.418438 14.1099 0.382286 13.9811 0.375952 13.8428C0.369619 13.7046 0.405772 13.5694 0.484411 13.4375L7.80733 0.770833C7.8865 0.638889 7.98888 0.539931 8.1145 0.473958C8.24011 0.407986 8.36862 0.375 8.50004 0.375C8.63145 0.375 8.76023 0.407986 8.88637 0.473958C9.01251 0.539931 9.11464 0.638889 9.19275 0.770833L16.5157 13.4375C16.5948 13.5694 16.6312 13.7048 16.6249 13.8436C16.6186 13.9824 16.5822 14.1109 16.5157 14.2292C16.4492 14.3474 16.3568 14.4432 16.2386 14.5165C16.1204 14.5899 15.9884 14.6261 15.8427 14.625H1.15733ZM2.52295 13.0417H14.4771L8.50004 2.75L2.52295 13.0417ZM8.50004 12.25C8.72434 12.25 8.9125 12.174 9.0645 12.022C9.2165 11.87 9.29223 11.6821 9.2917 11.4583C9.29118 11.2346 9.21518 11.0467 9.0637 10.8947C8.91223 10.7427 8.72434 10.6667 8.50004 10.6667C8.27573 10.6667 8.08784 10.7427 7.93637 10.8947C7.7849 11.0467 7.7089 11.2346 7.70837 11.4583C7.70784 11.6821 7.78384 11.8703 7.93637 12.0228C8.0889 12.1753 8.27679 12.2511 8.50004 12.25ZM8.50004 9.875C8.72434 9.875 8.9125 9.799 9.0645 9.647C9.2165 9.495 9.29223 9.30711 9.2917 9.08333V6.70833C9.2917 6.48403 9.2157 6.29614 9.0637 6.14467C8.9117 5.99319 8.72382 5.91719 8.50004 5.91667C8.27626 5.91614 8.08837 5.99214 7.93637 6.14467C7.78437 6.29719 7.70837 6.48508 7.70837 6.70833V9.08333C7.70837 9.30764 7.78437 9.49579 7.93637 9.64779C8.08837 9.79979 8.27626 9.87553 8.50004 9.875Z" fill="#F9FAFB"/>
</svg>
