<svg width="19" height="20" viewBox="0 0 19 20" fill="none" xmlns="http://www.w3.org/2000/svg">
<g clip-path="url(#clip0_97_109)">
<path d="M16.889 3.66675H2.11122C1.83127 3.66675 1.56278 3.77796 1.36483 3.97591C1.16687 4.17387 1.05566 4.44235 1.05566 4.7223V15.2779C1.05566 15.5578 1.16687 15.8263 1.36483 16.0242C1.56278 16.2222 1.83127 16.3334 2.11122 16.3334H16.889C17.1689 16.3334 17.4374 16.2222 17.6354 16.0242C17.8333 15.8263 17.9446 15.5578 17.9446 15.2779V4.7223C17.9446 4.44235 17.8333 4.17387 17.6354 3.97591C17.4374 3.77796 17.1689 3.66675 16.889 3.66675ZM16.0762 15.2779H2.98733L6.68178 11.4567L5.92178 10.7231L2.11122 14.6656V5.52453L8.6715 12.0531C8.86927 12.2497 9.1368 12.3601 9.41566 12.3601C9.69453 12.3601 9.96206 12.2497 10.1598 12.0531L16.889 5.36091V14.597L13.0046 10.7126L12.2604 11.4567L16.0762 15.2779ZM2.80261 4.7223H16.034L9.41566 11.3037L2.80261 4.7223Z" fill="#F9FAFB"/>
</g>
<defs>
<clipPath id="clip0_97_109">
<rect width="19" height="19" fill="white" transform="translate(0 0.5)"/>
</clipPath>
</defs>
</svg>
