<svg width="20" height="20" viewBox="0 0 20 20" fill="none" xmlns="http://www.w3.org/2000/svg">
<path d="M9.99984 1.66663C8.90549 1.66663 7.82185 1.88217 6.81081 2.30096C5.79976 2.71975 4.8811 3.33358 4.10728 4.1074C2.54448 5.67021 1.6665 7.78982 1.6665 9.99996C1.6665 13.6833 4.05817 16.8083 7.3665 17.9166C7.78317 17.9833 7.9165 17.725 7.9165 17.5V16.0916C5.60817 16.5916 5.1165 14.975 5.1165 14.975C4.73317 14.0083 4.1915 13.75 4.1915 13.75C3.43317 13.2333 4.24984 13.25 4.24984 13.25C5.08317 13.3083 5.52484 14.1083 5.52484 14.1083C6.24984 15.375 7.47484 15 7.94984 14.8C8.02484 14.2583 8.2415 13.8916 8.47484 13.6833C6.62484 13.475 4.68317 12.7583 4.68317 9.58329C4.68317 8.65829 4.99984 7.91663 5.5415 7.32496C5.45817 7.11663 5.1665 6.24996 5.62484 5.12496C5.62484 5.12496 6.32484 4.89996 7.9165 5.97496C8.57484 5.79163 9.2915 5.69996 9.99984 5.69996C10.7082 5.69996 11.4248 5.79163 12.0832 5.97496C13.6748 4.89996 14.3748 5.12496 14.3748 5.12496C14.8332 6.24996 14.5415 7.11663 14.4582 7.32496C14.9998 7.91663 15.3165 8.65829 15.3165 9.58329C15.3165 12.7666 13.3665 13.4666 11.5082 13.675C11.8082 13.9333 12.0832 14.4416 12.0832 15.2166V17.5C12.0832 17.725 12.2165 17.9916 12.6415 17.9166C15.9498 16.8 18.3332 13.6833 18.3332 9.99996C18.3332 8.90561 18.1176 7.82198 17.6988 6.81093C17.28 5.79988 16.6662 4.88122 15.8924 4.1074C15.1186 3.33358 14.1999 2.71975 13.1889 2.30096C12.1778 1.88217 11.0942 1.66663 9.99984 1.66663Z" fill="#F9FAFB"/>
</svg>
