<svg width="15" height="16" viewBox="0 0 15 16" fill="none" xmlns="http://www.w3.org/2000/svg">
<path id="Vector" d="M7.5 15.5C6.22727 15.5 5.05682 15.2102 3.98864 14.6307C2.92045 14.0511 2.04545 13.2784 1.36364 12.3125V14.1364H0V10.0455H4.09091V11.4091H2.40341C2.94886 12.2273 3.66761 12.8864 4.55966 13.3864C5.4517 13.8864 6.43182 14.1364 7.5 14.1364C8.35227 14.1364 9.15057 13.9744 9.89489 13.6506C10.6392 13.3267 11.2869 12.8892 11.8381 12.3381C12.3892 11.7869 12.8267 11.1392 13.1506 10.3949C13.4744 9.65057 13.6364 8.85227 13.6364 8H15C15 9.03409 14.804 10.0057 14.4119 10.9148C14.0199 11.8239 13.483 12.6193 12.8011 13.3011C12.1193 13.983 11.3239 14.5199 10.4148 14.9119C9.50568 15.304 8.53409 15.5 7.5 15.5ZM6.88636 12.7727V11.8864C6.35227 11.7614 5.91761 11.5312 5.58239 11.196C5.24716 10.8608 5 10.4205 4.84091 9.875L5.96591 9.43182C6.10227 9.89773 6.31534 10.2472 6.60511 10.4801C6.89489 10.7131 7.22727 10.8295 7.60227 10.8295C7.97727 10.8295 8.2983 10.7415 8.56534 10.5653C8.83239 10.3892 8.96591 10.1136 8.96591 9.73864C8.96591 9.40909 8.8267 9.14205 8.5483 8.9375C8.26989 8.73295 7.77273 8.5 7.05682 8.23864C6.38636 8 5.89489 7.71591 5.58239 7.38636C5.26989 7.05682 5.11364 6.625 5.11364 6.09091C5.11364 5.625 5.27557 5.2017 5.59943 4.82102C5.9233 4.44034 6.36364 4.19318 6.92045 4.07955V3.22727H8.11364V4.07955C8.52273 4.11364 8.89489 4.27841 9.23011 4.57386C9.56534 4.86932 9.79545 5.21591 9.92045 5.61364L8.82955 6.05682C8.73864 5.79545 8.59091 5.5767 8.38636 5.40057C8.18182 5.22443 7.89773 5.13636 7.53409 5.13636C7.13636 5.13636 6.83239 5.22159 6.62216 5.39205C6.41193 5.5625 6.30682 5.79545 6.30682 6.09091C6.30682 6.38636 6.4375 6.61932 6.69886 6.78977C6.96023 6.96023 7.43182 7.15909 8.11364 7.38636C8.93182 7.68182 9.47727 8.02841 9.75 8.42614C10.0227 8.82386 10.1591 9.26136 10.1591 9.73864C10.1591 10.0682 10.1023 10.358 9.98864 10.608C9.875 10.858 9.72443 11.071 9.53693 11.2472C9.34943 11.4233 9.13068 11.5653 8.88068 11.6733C8.63068 11.7812 8.36364 11.8636 8.07955 11.9205V12.7727H6.88636ZM0 8C0 6.96591 0.196023 5.99432 0.588068 5.08523C0.980114 4.17614 1.51705 3.38068 2.19886 2.69886C2.88068 2.01705 3.67614 1.48011 4.58523 1.08807C5.49432 0.696023 6.46591 0.5 7.5 0.5C8.77273 0.5 9.94318 0.789773 11.0114 1.36932C12.0795 1.94886 12.9545 2.72159 13.6364 3.6875V1.86364H15V5.95455H10.9091V4.59091H12.5966C12.0511 3.77273 11.3324 3.11364 10.4403 2.61364C9.5483 2.11364 8.56818 1.86364 7.5 1.86364C6.64773 1.86364 5.84943 2.02557 5.10511 2.34943C4.3608 2.6733 3.71307 3.1108 3.16193 3.66193C2.6108 4.21307 2.1733 4.8608 1.84943 5.60511C1.52557 6.34943 1.36364 7.14773 1.36364 8H0Z" fill="white"/>
</svg>
