<svg width="15" height="16" viewBox="0 0 15 16" fill="none" xmlns="http://www.w3.org/2000/svg">
<path id="Vector" d="M6.825 13.25H8.1375V12.3125C8.7625 12.2 9.3 11.9563 9.75 11.5813C10.2 11.2063 10.425 10.65 10.425 9.9125C10.425 9.3875 10.275 8.90625 9.975 8.46875C9.675 8.03125 9.075 7.65 8.175 7.325C7.425 7.075 6.90625 6.85625 6.61875 6.66875C6.33125 6.48125 6.1875 6.225 6.1875 5.9C6.1875 5.575 6.30313 5.31875 6.53438 5.13125C6.76563 4.94375 7.1 4.85 7.5375 4.85C7.9375 4.85 8.25 4.94688 8.475 5.14062C8.7 5.33438 8.8625 5.575 8.9625 5.8625L10.1625 5.375C10.025 4.9375 9.77188 4.55625 9.40313 4.23125C9.03438 3.90625 8.625 3.725 8.175 3.6875V2.75H6.8625V3.6875C6.2375 3.825 5.75 4.1 5.4 4.5125C5.05 4.925 4.875 5.3875 4.875 5.9C4.875 6.4875 5.04688 6.9625 5.39062 7.325C5.73438 7.6875 6.275 8 7.0125 8.2625C7.8 8.55 8.34688 8.80625 8.65313 9.03125C8.95938 9.25625 9.1125 9.55 9.1125 9.9125C9.1125 10.325 8.96563 10.6281 8.67188 10.8219C8.37813 11.0156 8.025 11.1125 7.6125 11.1125C7.2 11.1125 6.83438 10.9844 6.51563 10.7281C6.19688 10.4719 5.9625 10.0875 5.8125 9.575L4.575 10.0625C4.75 10.6625 5.02188 11.1469 5.39062 11.5156C5.75938 11.8844 6.2375 12.1375 6.825 12.275V13.25ZM7.5 15.5C6.4625 15.5 5.4875 15.3031 4.575 14.9094C3.6625 14.5156 2.86875 13.9813 2.19375 13.3063C1.51875 12.6313 0.984375 11.8375 0.590625 10.925C0.196875 10.0125 0 9.0375 0 8C0 6.9625 0.196875 5.9875 0.590625 5.075C0.984375 4.1625 1.51875 3.36875 2.19375 2.69375C2.86875 2.01875 3.6625 1.48438 4.575 1.09063C5.4875 0.696875 6.4625 0.5 7.5 0.5C8.5375 0.5 9.5125 0.696875 10.425 1.09063C11.3375 1.48438 12.1313 2.01875 12.8063 2.69375C13.4813 3.36875 14.0156 4.1625 14.4094 5.075C14.8031 5.9875 15 6.9625 15 8C15 9.0375 14.8031 10.0125 14.4094 10.925C14.0156 11.8375 13.4813 12.6313 12.8063 13.3063C12.1313 13.9813 11.3375 14.5156 10.425 14.9094C9.5125 15.3031 8.5375 15.5 7.5 15.5ZM7.5 14C9.175 14 10.5938 13.4188 11.7563 12.2563C12.9188 11.0938 13.5 9.675 13.5 8C13.5 6.325 12.9188 4.90625 11.7563 3.74375C10.5938 2.58125 9.175 2 7.5 2C5.825 2 4.40625 2.58125 3.24375 3.74375C2.08125 4.90625 1.5 6.325 1.5 8C1.5 9.675 2.08125 11.0938 3.24375 12.2563C4.40625 13.4188 5.825 14 7.5 14Z" fill="#FBB914"/>
</svg>
