<svg width="26" height="24" viewBox="0 0 26 24" fill="none" xmlns="http://www.w3.org/2000/svg">
<path d="M17.9147 5.60256C17.7926 5.60256 17.7098 5.61742 17.6239 5.63759V5.65139H17.6387C17.696 5.76179 17.7937 5.84247 17.8659 5.94119C17.9232 6.05478 17.972 6.16836 18.0294 6.28089L18.0442 6.26497C18.144 6.1949 18.1928 6.08238 18.1928 5.91147C18.1504 5.86158 18.144 5.81168 18.1079 5.76285C18.0655 5.69173 17.9742 5.6567 17.9168 5.60044L17.9147 5.60256ZM6.62514 19.6086H5.64108C5.61321 18.0448 5.51759 16.4828 5.35447 14.9272H5.34597L3.84919 19.6086H3.1008L1.61463 14.9272H1.60401C1.48783 16.4852 1.4188 18.0464 1.39701 19.6086H0.5C0.558739 17.5209 0.703817 15.5641 0.935235 13.7383H2.15602L3.57319 18.0524H3.58168L5.01158 13.7383H6.17398C6.43088 15.8784 6.58232 17.8351 6.62832 19.6086H6.62514ZM10.8894 15.2775C10.4881 17.4494 9.96017 19.0276 9.30555 20.012C8.79389 20.7721 8.23374 21.1518 7.62512 21.1511C7.46376 21.1511 7.26348 21.1022 7.02428 21.0046V20.4802C7.14176 20.4986 7.27835 20.5078 7.43404 20.5078C7.71854 20.5078 7.94748 20.4292 8.12086 20.2721C8.32963 20.081 8.43402 19.8669 8.43402 19.6299C8.43402 19.465 8.35263 19.1309 8.18986 18.6278L7.11345 15.2775H8.07946L8.85121 17.7828C9.02601 18.3518 9.09855 18.7491 9.06883 18.9749C9.49345 17.844 9.78891 16.6115 9.95522 15.2775H10.8894ZM23.973 19.6086H21.1811V13.7383H22.1206V18.8868H23.973V19.6086ZM20.4486 19.7519L19.3701 19.2212C19.4663 19.1412 19.5566 19.0527 19.6408 18.9558C20.1001 18.4179 20.3294 17.6207 20.3287 16.5641C20.3287 14.6215 19.5661 13.6498 18.041 13.6491C17.2937 13.6491 16.7099 13.8957 16.2895 14.389C15.8323 14.9283 15.6037 15.7227 15.6037 16.7722C15.603 17.8047 15.8061 18.562 16.2131 19.0439C16.5839 19.4791 17.144 19.6967 17.8935 19.6967C18.1737 19.6967 18.4303 19.6621 18.6631 19.5927L20.0697 20.4122L20.4518 19.7519H20.4486ZM16.954 18.4335C16.7155 18.0506 16.5963 17.4364 16.5963 16.5907C16.5963 15.1116 17.0457 14.372 17.9444 14.372C18.4158 14.372 18.7615 14.5489 18.9816 14.9028C19.2194 15.2871 19.3383 15.8968 19.3383 16.7318C19.3383 18.223 18.8889 18.9689 17.9901 18.9696C17.5181 18.9696 17.172 18.7927 16.9519 18.4388L16.954 18.4335ZM15.194 17.9823C15.194 18.482 15.0114 18.891 14.6462 19.2095C14.2824 19.528 13.7927 19.6872 13.177 19.6872C12.6006 19.6872 12.0475 19.5046 11.5072 19.1405L11.7588 18.6352C12.223 18.868 12.6441 18.9841 13.022 18.9834C13.3745 18.9834 13.6515 18.9055 13.8532 18.7498C13.9543 18.6741 14.0359 18.5754 14.0913 18.4619C14.1466 18.3483 14.1742 18.2233 14.1717 18.097C14.1717 17.7467 13.9275 17.4494 13.4838 17.2C13.0719 16.9739 12.2492 16.5025 12.2492 16.5025C11.8013 16.1767 11.5783 15.8274 11.5783 15.2531C11.5783 14.7761 11.7446 14.3922 12.0773 14.1013C12.4106 13.8069 12.8423 13.6601 13.3723 13.6608C13.9166 13.6608 14.412 13.8059 14.8585 14.096L14.6324 14.6013C14.2764 14.4441 13.8921 14.361 13.5029 14.3572C13.2021 14.3572 12.9707 14.43 12.8087 14.5758C12.7271 14.6439 12.6612 14.7289 12.6158 14.825C12.5703 14.921 12.5463 15.0258 12.5454 15.1321C12.5454 15.4803 12.7938 15.7796 13.2524 16.0344C13.6696 16.2626 14.5125 16.7456 14.5125 16.7456C14.9721 17.0694 15.2003 17.4144 15.2003 17.9855L15.194 17.9823ZM25.1534 11.7702C24.5855 11.7553 24.1449 11.8126 23.7766 11.9697C23.6704 12.0122 23.5006 12.0122 23.4857 12.147C23.5441 12.2033 23.5526 12.2956 23.6025 12.3742C23.6874 12.5164 23.8339 12.7064 23.9698 12.8062C24.117 12.9244 24.2681 13.0341 24.4231 13.1353C24.6991 13.3052 25.0122 13.406 25.2829 13.5769C25.4369 13.6767 25.594 13.803 25.75 13.9092C25.8275 13.9623 25.8774 14.0578 25.9772 14.0918V14.0705C25.9284 14.0068 25.9135 13.9145 25.8657 13.8434C25.7946 13.7722 25.7235 13.7085 25.6534 13.6385C25.4453 13.3636 25.1965 13.122 24.9156 12.9219C24.6885 12.767 24.1917 12.5504 24.0982 12.2903L24.0844 12.2755C24.2394 12.2617 24.4241 12.2054 24.5728 12.1629C24.8137 12.0992 25.0345 12.113 25.284 12.0504C25.3972 12.0207 25.5105 11.9874 25.6237 11.9506V11.8869C25.4963 11.7595 25.4008 11.5865 25.2691 11.4676C24.9014 11.1469 24.5096 10.8548 24.0972 10.594C23.8743 10.4517 23.5919 10.3604 23.3573 10.2394C23.2724 10.1969 23.1301 10.1757 23.0813 10.1046C22.9539 9.9496 22.8796 9.74366 22.7894 9.55895C22.5812 9.15447 22.3875 8.74268 22.2087 8.32437C22.0813 8.04624 22.0038 7.76918 21.8478 7.51441C21.1153 6.30743 20.3223 5.57602 19.1026 4.86054C18.8404 4.71192 18.5262 4.64823 18.1939 4.56967C18.0166 4.56118 17.8393 4.54844 17.6631 4.54101C17.5464 4.49112 17.4338 4.3563 17.334 4.29154C16.9307 4.03677 15.8861 3.48477 15.5889 4.21511C15.3978 4.67583 15.8723 5.13017 16.0368 5.36371C16.1589 5.52613 16.3128 5.7119 16.3978 5.89448C16.4477 6.01762 16.4615 6.14395 16.5113 6.2724C16.6239 6.58449 16.7311 6.93268 16.8797 7.22461C16.9572 7.37322 17.0421 7.52927 17.1419 7.66303C17.1992 7.74052 17.2969 7.77661 17.3192 7.904C17.2194 8.04837 17.213 8.25855 17.1557 8.43477C16.9009 9.23836 17.0007 10.232 17.3616 10.8233C17.4752 10.9995 17.7459 11.3901 18.1079 11.2404C18.4264 11.1131 18.3563 10.7097 18.4476 10.3541C18.4688 10.2691 18.455 10.2129 18.4986 10.1555V10.1715C18.5984 10.371 18.6981 10.5611 18.7894 10.7606C19.0081 11.1088 19.3903 11.4697 19.7098 11.7107C19.8796 11.8381 20.0145 12.0589 20.2268 12.1375V12.1162H20.2108C20.1652 12.0547 20.1047 12.0249 20.0474 11.975C19.9129 11.8431 19.7887 11.7012 19.6758 11.5504C19.3777 11.1411 19.1125 10.7088 18.8828 10.2575C18.7661 10.0345 18.6684 9.79462 18.575 9.57488C18.5325 9.48995 18.5325 9.36257 18.4614 9.3201C18.3553 9.47509 18.1992 9.60991 18.1217 9.80099C17.9869 10.1067 17.9731 10.4825 17.9221 10.8732C17.8935 10.8806 17.9073 10.8732 17.8935 10.888C17.6663 10.8328 17.5888 10.5971 17.5039 10.3997C17.2916 9.89546 17.2566 9.0855 17.4402 8.50483C17.4901 8.35622 17.7024 7.88701 17.6175 7.74476C17.5729 7.60995 17.4328 7.53246 17.3553 7.42312C17.2557 7.28073 17.1704 7.1289 17.1005 6.96983C16.9307 6.57281 16.8457 6.13333 16.661 5.73631C16.5761 5.55267 16.4275 5.36052 16.3065 5.19174C16.1717 5.00066 16.023 4.86584 15.9158 4.63973C15.8808 4.56224 15.8309 4.43379 15.8872 4.34887C15.902 4.29155 15.9317 4.26925 15.9869 4.25333C16.0804 4.1769 16.3426 4.27668 16.4349 4.31914C16.6971 4.4253 16.9179 4.52509 17.1377 4.6737C17.2374 4.74376 17.3447 4.87858 17.472 4.91361H17.6207C17.8478 4.96351 18.1037 4.92847 18.316 4.99111C18.6928 5.11212 19.0325 5.28834 19.3372 5.47942C20.2761 6.07899 21.0396 6.91619 21.5505 7.90612C21.6354 8.0696 21.6726 8.21928 21.7501 8.38913C21.8987 8.73944 22.0824 9.09293 22.2331 9.43157C22.3817 9.76595 22.525 10.1067 22.7384 10.3838C22.8446 10.5324 23.2713 10.6099 23.4624 10.6874C23.6036 10.7511 23.8233 10.8095 23.9507 10.887C24.1948 11.0356 24.4326 11.2054 24.6619 11.3689C24.7787 11.4496 25.1322 11.6269 25.1534 11.7702Z" fill="#F9FAFB"/>
</svg>
