<svg width="25" height="24" viewBox="0 0 25 24" fill="none" xmlns="http://www.w3.org/2000/svg">
<path d="M18.823 9.00695C18.597 8.97395 18.403 8.87695 18.177 8.81295C18.21 8.68395 18.21 8.55495 18.274 8.36095C18.726 6.03895 18.404 4.20095 17.371 3.55495C16.339 2.97495 14.661 3.58695 12.984 5.03895C12.854 5.16795 12.629 5.29695 12.5 5.48995C12.403 5.39395 12.274 5.29695 12.177 5.16795C10.403 3.58795 8.661 2.94195 7.565 3.55495C6.532 4.13495 6.21 5.90995 6.661 8.07095C6.694 8.29695 6.758 8.52295 6.791 8.71595C6.565 8.74895 6.306 8.84595 6.081 8.94195C3.984 9.68395 2.5 10.8779 2.5 12.0069C2.5 13.2319 4.08 14.4579 6.242 15.1669C6.435 15.1999 6.597 15.2969 6.79 15.2969C6.758 15.5229 6.661 15.7479 6.661 16.0069C6.241 18.1359 6.565 19.8449 7.597 20.4259C8.629 21.0709 10.435 20.4259 12.113 18.8779C12.242 18.7479 12.371 18.6519 12.533 18.5229C12.7019 18.6892 12.8853 18.8401 13.081 18.9739C14.694 20.4259 16.371 21.0069 17.436 20.4259C18.468 19.7809 18.823 17.9739 18.371 15.7159C18.339 15.5869 18.339 15.3619 18.241 15.1679C18.371 15.1359 18.468 15.1359 18.597 15.0379C20.855 14.3619 22.5 13.1369 22.5 11.9099C22.468 10.9099 20.92 9.74895 18.823 9.00695ZM13.533 5.71695C14.983 4.45795 16.339 4.00695 16.983 4.32895C17.629 4.68395 17.887 6.23195 17.468 8.26495C17.436 8.39395 17.436 8.48995 17.371 8.68395C16.5 8.48995 15.661 8.32895 14.758 8.26395C14.274 7.55495 13.726 6.81395 13.145 6.23195C13.2419 6.03805 13.373 5.86324 13.532 5.71595M9.047 14.0699C9.241 14.4249 9.467 14.7479 9.693 15.0699C9.08437 15.0361 8.47979 14.9497 7.886 14.8119C8.03497 14.2192 8.25138 13.6454 8.531 13.1019C8.661 13.3919 8.886 13.7799 9.047 14.0699ZM7.887 9.42495C8.47334 9.29311 9.06484 9.18535 9.66 9.10195C9.434 9.42495 9.24 9.74795 9.08 10.1019C8.918 10.4569 8.725 10.7479 8.531 11.1349C8.241 10.5219 8.081 9.97295 7.887 9.42495ZM8.917 12.1019C9.143 11.5539 9.466 11.0699 9.788 10.5219C10.111 9.97295 10.433 9.48895 10.724 8.97295C11.304 8.94095 11.885 8.94095 12.498 8.94095C13.078 8.94095 13.724 8.97295 14.272 8.97295C14.627 9.45695 14.917 9.97295 15.208 10.4569C15.53 10.9409 15.788 11.4899 16.078 12.0369C15.853 12.5869 15.53 13.0699 15.208 13.6189C14.885 14.1669 14.562 14.6509 14.272 15.1669C13.692 15.1989 13.111 15.1989 12.466 15.1989C11.821 15.1989 11.24 15.1669 10.692 15.1669C10.337 14.6829 10.046 14.1669 9.756 13.6189C9.466 13.0699 9.208 12.6509 8.917 12.1019ZM15.95 14.0699C16.143 13.7149 16.304 13.3929 16.498 13.0379C16.724 13.5859 16.95 14.1669 17.143 14.7479C16.563 14.8769 15.917 14.9729 15.273 15.0699C15.53 14.7479 15.756 14.3929 15.95 14.0699ZM16.53 11.1019C16.337 10.7479 16.175 10.4249 15.982 10.0699C15.789 9.71495 15.562 9.42495 15.402 9.13495C15.9972 9.21802 16.5886 9.32544 17.175 9.45695C16.982 10.0059 16.756 10.5539 16.53 11.1019ZM12.5 6.74995C12.92 7.20095 13.274 7.65295 13.629 8.13695C12.8553 8.10484 12.0807 8.10484 11.307 8.13695C11.726 7.62095 12.145 7.16895 12.5 6.74995ZM7.984 4.35995C8.629 4.00595 10.113 4.48995 11.597 5.90895C11.694 6.00595 11.79 6.10195 11.919 6.16695C11.339 6.81195 10.79 7.52195 10.242 8.19895C9.36366 8.28868 8.49122 8.42891 7.629 8.61895C7.597 8.42495 7.532 8.19895 7.5 8.03795C7.145 6.13495 7.371 4.71495 7.984 4.35995ZM7.08 14.6199C6.95 14.5869 6.757 14.5229 6.596 14.4899C5.69653 14.2462 4.85292 13.8302 4.112 13.2649C3.66 12.9419 3.434 12.5549 3.338 12.1029C3.338 11.3929 4.596 10.4909 6.37 9.84495C6.596 9.74895 6.822 9.71595 7.047 9.61995C7.305 10.4899 7.628 11.2969 7.983 12.1029C7.66 12.9099 7.305 13.7159 7.08 14.6199ZM11.564 18.3939C10.912 18.9791 10.1572 19.4385 9.338 19.7489C9.12955 19.8573 8.89907 19.9165 8.66421 19.922C8.42935 19.9276 8.19634 19.8793 7.983 19.7809C7.338 19.4259 7.112 18.0709 7.434 16.2009C7.467 15.9739 7.531 15.7489 7.564 15.5549C8.434 15.7489 9.338 15.8779 10.176 15.9099C10.66 16.6199 11.273 17.3609 11.854 18.0069C11.822 18.1999 11.692 18.2969 11.564 18.3939ZM12.531 17.4909C12.111 17.0389 11.757 16.5869 11.37 16.1029C11.725 16.1029 12.08 16.1359 12.499 16.1359C12.918 16.1359 13.305 16.1359 13.66 16.1029C13.306 16.5229 12.95 16.9749 12.531 17.4909ZM17.628 18.6179C17.596 19.0699 17.37 19.5539 16.983 19.8439C16.338 20.1989 15.047 19.7479 13.628 18.4899C13.499 18.3599 13.306 18.2309 13.144 18.0379C13.7353 17.3819 14.2746 16.6808 14.757 15.9409C15.66 15.9089 16.531 15.7149 17.37 15.5209C17.402 15.6509 17.402 15.8439 17.467 15.9729C17.693 16.8769 17.693 17.7799 17.628 18.6179ZM18.338 14.4579C18.241 14.4899 18.112 14.4899 17.983 14.5539C17.725 13.6829 17.338 12.8769 16.983 12.0699C17.338 11.2959 17.66 10.4569 17.918 9.61895C18.144 9.65095 18.338 9.74795 18.499 9.81195C20.305 10.4569 21.563 11.3599 21.563 12.0699C21.596 12.8119 20.273 13.8119 18.338 14.4569M12.5 13.8439C13.5 13.8439 14.274 13.0379 14.274 12.0699C14.2696 11.6009 14.0812 11.1524 13.7494 10.8208C13.4177 10.4892 12.969 10.3011 12.5 10.2969C11.565 10.2969 10.726 11.1029 10.726 12.0709C10.726 13.0389 11.5 13.8449 12.5 13.8449" fill="#F9FAFB"/>
</svg>
