<svg width="15" height="18" viewBox="0 0 15 18" fill="none" xmlns="http://www.w3.org/2000/svg">
<path id="Vector" d="M7.5 0.5L15 4.75V13.25L7.5 17.5L0 13.25V4.75L7.5 0.5ZM7.5 2.28577L1.57895 5.64095V12.359L7.5 15.7142L13.4211 12.359V5.64095L7.5 2.28577ZM7.5 12.0909C6.66247 12.0909 5.85925 11.7653 5.26703 11.1856C4.67481 10.6059 4.34211 9.81976 4.34211 9C4.34211 8.18024 4.67481 7.39405 5.26703 6.8144C5.85925 6.23474 6.66247 5.90909 7.5 5.90909C8.33753 5.90909 9.14075 6.23474 9.73297 6.8144C10.3252 7.39405 10.6579 8.18024 10.6579 9C10.6579 9.81976 10.3252 10.6059 9.73297 11.1856C9.14075 11.7653 8.33753 12.0909 7.5 12.0909ZM7.5 10.5455C7.91876 10.5455 8.32037 10.3826 8.61648 10.0928C8.91259 9.80297 9.07895 9.40988 9.07895 9C9.07895 8.59012 8.91259 8.19703 8.61648 7.9072C8.32037 7.61737 7.91876 7.45455 7.5 7.45455C7.08124 7.45455 6.67963 7.61737 6.38352 7.9072C6.08741 8.19703 5.92105 8.59012 5.92105 9C5.92105 9.40988 6.08741 9.80297 6.38352 10.0928C6.67963 10.3826 7.08124 10.5455 7.5 10.5455Z" fill="white"/>
</svg>
