<svg width="21" height="20" viewBox="0 0 21 20" fill="none" xmlns="http://www.w3.org/2000/svg">
<g clip-path="url(#clip0_97_82)">
<path d="M20.2442 8.92163L16.3025 2.10079C15.9609 1.50913 15.1217 1.02246 14.4359 1.02246H6.56086C5.87753 1.02246 5.03503 1.50913 4.6942 2.10079L0.755029 8.92163C0.413363 9.51329 0.413363 10.4825 0.755029 11.075L4.69253 17.8991C5.0342 18.4908 5.87336 18.9775 6.5592 18.9775H14.4384C15.1217 18.9775 15.96 18.4908 16.305 17.8991L20.2434 11.0741C20.585 10.4825 20.585 9.51329 20.2434 8.92163H20.2442ZM9.6467 4.79579C9.6467 4.34829 10.0117 3.98329 10.4584 3.98329C10.905 3.98329 11.2709 4.34829 11.2709 4.79579V9.64663C11.2576 9.8529 11.1664 10.0464 11.0156 10.1878C10.8648 10.3292 10.6659 10.4079 10.4592 10.4079C10.2525 10.4079 10.0535 10.3292 9.90279 10.1878C9.75202 10.0464 9.66075 9.8529 9.64753 9.64663L9.6467 4.79579ZM10.4584 15.1541C8.99844 15.1521 7.59892 14.5712 6.56675 13.5387C5.53459 12.5062 4.95407 11.1065 4.95253 9.64663C4.95463 8.78796 5.15654 7.94156 5.54229 7.17441C5.92803 6.40725 6.48702 5.74041 7.17503 5.22663C7.25123 5.16986 7.3379 5.12869 7.43005 5.1055C7.5222 5.08231 7.61802 5.07755 7.71202 5.09148C7.80602 5.10542 7.89634 5.13778 7.97779 5.18672C8.05925 5.23565 8.13024 5.30019 8.1867 5.37663C8.24342 5.4527 8.28459 5.53922 8.30784 5.63122C8.33109 5.72323 8.33597 5.81892 8.32219 5.91281C8.30841 6.0067 8.27625 6.09695 8.22755 6.1784C8.17884 6.25985 8.11456 6.33089 8.03836 6.38746C7.20354 7.04059 6.65698 7.99407 6.51527 9.04451C6.37356 10.095 6.64793 11.1592 7.27984 12.0102C7.91176 12.8612 8.85119 13.4316 9.89773 13.5997C10.9443 13.7678 12.0151 13.5203 12.8817 12.91C13.3904 12.5315 13.8036 12.0392 14.0882 11.4726C14.3728 10.906 14.521 10.2807 14.5209 9.64663C14.519 9.01017 14.3684 8.38296 14.081 7.81506C13.7937 7.24716 13.3775 6.75429 12.8659 6.37579C12.7118 6.2616 12.6093 6.09105 12.5807 5.90145C12.5521 5.71185 12.5998 5.51865 12.7134 5.36413C12.8276 5.2101 12.9981 5.10757 13.1877 5.07899C13.3773 5.05041 13.5705 5.0981 13.725 5.21163C14.4186 5.72471 14.9824 6.3931 15.3712 7.16324C15.7601 7.93339 15.9631 8.78389 15.9642 9.64663C15.9631 11.1067 15.3826 12.5067 14.3501 13.5392C13.3176 14.5717 11.9176 15.1522 10.4575 15.1533" fill="#F9FAFB"/>
</g>
<defs>
<clipPath id="clip0_97_82">
<rect width="20" height="20" fill="white" transform="translate(0.5)"/>
</clipPath>
</defs>
</svg>
