<svg width="21" height="20" viewBox="0 0 21 20" fill="none" xmlns="http://www.w3.org/2000/svg">
<g clip-path="url(#clip0_97_99)">
<path d="M10.5001 4.30005C8.01119 4.30005 6.45564 5.56672 5.83341 8.10005C6.76675 6.83338 7.85564 6.35838 9.10008 6.67505C9.81075 6.85618 10.3174 7.38058 10.8787 7.96072C11.7947 8.90565 12.8534 10 15.1667 10C17.6556 10 19.2112 8.73338 19.8334 6.20005C18.9001 7.46672 17.8112 7.94172 16.5667 7.62505C15.8561 7.44392 15.3494 6.91952 14.7881 6.33938C13.8721 5.39445 12.8134 4.30005 10.5001 4.30005ZM5.83341 10C3.34453 10 1.78897 11.2667 1.16675 13.8C2.10008 12.5334 3.18897 12.0584 4.43341 12.375C5.14408 12.5562 5.65075 13.0806 6.21208 13.6607C7.12808 14.6057 8.18675 15.7 10.5001 15.7C12.989 15.7 14.5445 14.4334 15.1667 11.9C14.2334 13.1667 13.1445 13.6417 11.9001 13.325C11.1894 13.1439 10.6827 12.6195 10.1214 12.0394C9.20541 11.0944 8.14675 10 5.83341 10Z" stroke="#F9FAFB" stroke-linejoin="round"/>
</g>
<defs>
<clipPath id="clip0_97_99">
<rect width="20" height="19" fill="white" transform="translate(0.5 0.5)"/>
</clipPath>
</defs>
</svg>
