<svg width="21" height="20" viewBox="0 0 21 20" fill="none" xmlns="http://www.w3.org/2000/svg">
<g clip-path="url(#clip0_97_88)">
<mask id="mask0_97_88" style="mask-type:luminance" maskUnits="userSpaceOnUse" x="0" y="0" width="21" height="20">
<path d="M0.5 4C0.5 1.79086 2.29086 0 4.5 0H16.5C18.7091 0 20.5 1.79086 20.5 4V16C20.5 18.2091 18.7091 20 16.5 20H4.5C2.29086 20 0.5 18.2091 0.5 16V4Z" fill="white"/>
</mask>
<g mask="url(#mask0_97_88)">
<path d="M20.0242 2.92424e-06H0.975001C0.912553 2.82814e-06 0.850717 0.0123166 0.793033 0.0362397C0.735349 0.0601628 0.682949 0.0952256 0.63883 0.139422C0.594711 0.183618 0.55974 0.23608 0.535918 0.293806C0.512097 0.351532 0.499891 0.413388 0.500001 0.475836V19.525C0.499891 19.5875 0.512124 19.6494 0.535998 19.7072C0.559872 19.765 0.594917 19.8175 0.639124 19.8617C0.683331 19.9059 0.73583 19.941 0.793611 19.9648C0.851391 19.9887 0.913316 20.0009 0.975834 20.0008H20.025C20.0875 20.0009 20.1494 19.9887 20.2072 19.9648C20.265 19.941 20.3175 19.9059 20.3617 19.8617C20.4059 19.8175 20.441 19.765 20.4648 19.7072C20.4887 19.6494 20.5009 19.5875 20.5008 19.525V0.475003C20.5008 0.412485 20.4885 0.350581 20.4645 0.292843C20.4405 0.235104 20.4054 0.182666 20.3611 0.138537C20.3168 0.0944069 20.2643 0.0594534 20.2065 0.0356807C20.1486 0.0119079 20.0867 -0.000216438 20.0242 2.92424e-06ZM12.405 10.6883H10.0242V18.095H8.11917V10.6883H5.73833V9.0475H12.405V10.6883ZM12.9383 17.6717V15.6925C12.9383 15.6925 14.02 16.5075 15.3175 16.5075C16.615 16.5075 16.565 15.6592 16.565 15.5425C16.565 14.3117 12.8883 14.3117 12.8883 11.5833C12.8883 7.87334 18.2458 9.3375 18.2458 9.3375L18.1792 11.1008C18.1792 11.1008 17.2808 10.5017 16.2658 10.5017C15.2508 10.5017 14.885 10.985 14.885 11.5C14.885 12.8308 18.595 12.6983 18.595 15.3767C18.595 19.5017 12.9383 17.6725 12.9383 17.6725" fill="#F9FAFB"/>
</g>
</g>
<defs>
<clipPath id="clip0_97_88">
<rect width="20" height="20" fill="white" transform="translate(0.5)"/>
</clipPath>
</defs>
</svg>
