<svg width="22" height="22" viewBox="0 0 22 22" fill="none" xmlns="http://www.w3.org/2000/svg">
<path d="M7.95942 4.55122L3.46892 3.7506C3.27779 3.71511 3.0805 3.73478 2.90014 3.8073C2.71978 3.87982 2.56379 4.00219 2.45042 4.1601C2.33127 4.32011 2.26192 4.51168 2.25103 4.71087C2.24013 4.91007 2.28818 5.10805 2.38917 5.2801L10.1775 18.9126C10.2683 19.0715 10.3997 19.2034 10.5581 19.295C10.7166 19.3865 10.8965 19.4344 11.0795 19.4337C11.2625 19.433 11.4421 19.3837 11.5998 19.2909C11.7575 19.1982 11.8879 19.0652 11.9774 18.9056L19.6153 5.27485C20.044 4.50922 19.386 3.59747 18.5285 3.75322L14.5263 4.4646L14.346 5.12435L18.6388 4.36222C18.7161 4.34835 18.7957 4.35668 18.8684 4.38626C18.9411 4.41584 19.0039 4.46545 19.0496 4.52933C19.0952 4.5932 19.1218 4.66872 19.1262 4.7471C19.1306 4.82548 19.1127 4.9035 19.0745 4.9721L11.4375 18.6028C11.3955 18.6788 11.3306 18.7394 11.252 18.7762C11.1734 18.813 11.0852 18.824 11 18.8076C10.9406 18.7969 10.8842 18.7733 10.8349 18.7384C10.7856 18.7034 10.7446 18.6581 10.7148 18.6055L2.92554 4.97297C2.88677 4.90445 2.86831 4.82631 2.87231 4.74769C2.87631 4.66906 2.9026 4.5932 2.94812 4.52896C2.99363 4.46472 3.05649 4.41477 3.12935 4.38493C3.2022 4.3551 3.28204 4.34661 3.35954 4.36048L7.85092 5.16197L7.91567 5.17335L7.95942 4.55122Z" fill="#F9FAFB"/>
<path d="M13.7099 5.10262L13.8517 4.58374L13.3267 4.67737L13.7099 5.10262ZM8.56493 4.65987L9.0138 4.73862L8.53955 5.11224L8.56493 4.65987Z" fill="#F9FAFB"/>
<path d="M14.1054 2.57114L8.76795 3.67364C8.72453 3.68273 8.68559 3.70653 8.6577 3.74102C8.62913 3.77642 8.6123 3.81986 8.60957 3.86527L8.28145 9.71464C8.27939 9.74632 8.28454 9.77806 8.29651 9.80746C8.30849 9.83686 8.32697 9.86317 8.35057 9.8844C8.37307 9.90539 8.40049 9.9204 8.4303 9.92805C8.46011 9.93569 8.49137 9.93572 8.5212 9.92814L10.0069 9.56589C10.1469 9.53264 10.2712 9.66214 10.2432 9.80914L9.80132 12.0894C9.77157 12.2434 9.90807 12.3746 10.0507 12.3291L10.9686 12.0351C11.1103 11.9896 11.2477 12.1209 11.2171 12.2749L10.5162 15.8563C10.4724 16.0811 10.7542 16.2028 10.8723 16.0111L10.9511 15.8825L15.2998 6.72652C15.3733 6.57339 15.2473 6.39839 15.0881 6.43077L13.5586 6.74227C13.4142 6.77202 13.2926 6.63027 13.3328 6.48239L14.3303 2.83102C14.3714 2.68227 14.2489 2.54139 14.1054 2.57114Z" fill="#F9FAFB"/>
</svg>
