<?xml version="1.0" encoding="UTF-8"?>
<svg id="Capa_2" data-name="Capa 2" xmlns="http://www.w3.org/2000/svg" viewBox="0 0 363.77 363.77">
  <defs>
    <style>
      .cls-1 {
        fill: none;
        stroke: #1d1d1b;
        stroke-miterlimit: 10;
        stroke-width: 14.17px;
      }
    </style>
  </defs>
  <g id="Capa_4" data-name="Capa 4">
    <g>
      <path class="cls-1" d="M97.55,28.8c13.96-7.69,28.49-13.26,43.27-16.83,74.71-18.12,155.24,14.98,194.14,85.56,39,70.78,23.77,156.82-31.83,210.26-10.8,10.41-23.12,19.57-36.89,27.16-84.54,46.58-190.84,15.81-237.42-68.73C-17.76,181.68,13.01,75.38,97.55,28.8Z"/>
      <path class="cls-1" d="M355.5,189.27c-29.38.82-59.28,8.56-87.16,23.92-31.22,17.2-52.54,43.83-72.38,69.86-17.92,23.5-36.56,50.58-60.31,67.39"/>
      <path class="cls-1" d="M267.92,30.32c-16.39,24.4-38.9,45.54-66.78,60.9-31.22,17.2-65.12,21-97.72,23.87-29.44,2.59-62.29,3.89-89.19,14.98"/>
      <path class="cls-1" d="M140.82,11.97c43.64,28.81,84.52,72.95,115.15,128.53,30.88,56.04,46.36,114.66,47.16,167.29"/>
      <line class="cls-1" x1="28.81" y1="266.22" x2="334.95" y2="97.53"/>
    </g>
  </g>
</svg>