<?xml version="1.0" encoding="UTF-8"?>
<svg id="Capa_2" data-name="Capa 2" xmlns="http://www.w3.org/2000/svg" viewBox="0 0 385.57 383.83">
  <defs>
    <style>
      .cls-1 {
        fill: #1d1d1b;
      }

      .cls-2 {
        fill: none;
        stroke: #1d1d1b;
        stroke-miterlimit: 10;
        stroke-width: 14.17px;
      }
    </style>
  </defs>
  <g id="Capa_4" data-name="Capa 4">
    <g>
      <path class="cls-2" d="M129.68,310.71C59.73,296.46,7.09,234.6,7.09,160.44,7.09,75.74,75.74,7.09,160.44,7.09s153.35,68.66,153.35,153.35c0,16.81-2.7,32.98-7.7,48.11"/>
      <path class="cls-2" d="M129.43,303.59c-31.72-21.85-52.8-77.48-52.8-143.16C76.63,75.74,114.15,7.09,160.44,7.09s83.81,68.66,83.81,153.35c0,18.07-1.48,34.24-4.62,50.34"/>
      <path class="cls-2" d="M272.82,56.11c-28,16.47-67.99,26.78-112.38,26.78s-84.37-10.31-112.38-26.78"/>
      <path class="cls-2" d="M48.06,264.77c23.27-13.69,54.81-23.12,90.27-25.92"/>
      <line class="cls-2" x1="7.09" y1="160.44" x2="313.79" y2="160.44"/>
      <line class="cls-2" x1="160.44" y1="7.09" x2="160.44" y2="216.46"/>
      <g>
        <path class="cls-2" d="M213.55,314.35c-12.15.05-23.06,7.47-27.57,18.75l-10.66,26.65c-5.02,12.55-18.54,19.46-31.66,16.17h0c-13.36-3.35-22.06-16.21-20.2-29.85l12.88-94.71c3.16-23.25,23.02-40.59,46.48-40.59h136.04c23.46,0,43.32,17.34,46.48,40.59l12.88,94.71c1.86,13.64-6.85,26.5-20.2,29.85h0c-13.11,3.29-26.64-3.62-31.66-16.17l-10.66-26.65c-4.51-11.28-15.42-18.7-27.57-18.75h-74.59Z"/>
        <circle class="cls-1" cx="314.75" cy="243.87" r="6.09"/>
        <circle class="cls-1" cx="314.75" cy="282.12" r="6.09"/>
        <circle class="cls-1" cx="333.88" cy="263" r="6.09"/>
        <circle class="cls-1" cx="295.62" cy="263" r="6.09"/>
        <rect class="cls-1" x="180.56" y="237.77" width="12.19" height="50.44" rx="5.47" ry="5.47"/>
        <rect class="cls-1" x="180.56" y="237.77" width="12.19" height="50.44" rx="5.47" ry="5.47" transform="translate(449.65 76.34) rotate(90)"/>
      </g>
    </g>
  </g>
</svg>