<?xml version="1.0" encoding="UTF-8"?>
<svg id="Capa_2" data-name="Capa 2" xmlns="http://www.w3.org/2000/svg" viewBox="0 0 318.09 318.1">
  <defs>
    <style>
      .cls-1 {
        fill: none;
        stroke: #1d1d1b;
        stroke-miterlimit: 10;
        stroke-width: 14.17px;
      }
    </style>
  </defs>
  <g id="Capa_4" data-name="Capa 4">
    <g>
      <path class="cls-1" d="M303.53,205.99c-4.16,12.79-9.85,24.66-16.81,35.46-14.82,23-35.4,41.16-59.1,53.16-23.18,11.72-49.35,17.54-76.06,16.21-13.12-.66-26.37-3.04-39.46-7.29-13.06-4.24-25.14-10.08-36.11-17.23-22.44-14.63-40.21-34.74-52.08-57.88-12.13-23.63-18.11-50.41-16.58-77.75.72-12.83,3.09-25.78,7.24-38.57s9.85-24.66,16.81-35.46c14.83-23.01,35.41-41.17,59.11-53.16,23.2-11.74,49.41-17.56,76.16-16.21,13.08.66,26.29,3.04,39.34,7.28,13.09,4.25,25.21,10.11,36.21,17.3,22.4,14.63,40.15,34.72,52.01,57.82,12.12,23.63,18.1,50.42,16.57,77.74-.72,12.83-3.09,25.78-7.24,38.57Z"/>
      <g>
        <polygon class="cls-1" points="205.31 117.44 146.15 98.22 99.92 139.84 112.85 200.69 172.01 219.91 218.24 178.28 205.31 117.44"/>
        <path class="cls-1" d="M286.71,241.45c-14.82,23-35.4,41.16-59.1,53.16l-42.7-13.87-12.93-60.84,46.22-41.62,59.17,19.22,9.34,43.96Z"/>
        <path class="cls-1" d="M146.11,98.2l-46.22,41.62-59.17-19.22-9.34-43.96c14.83-23.01,35.41-41.17,59.11-53.16l42.69,13.87,12.93,60.84Z"/>
        <path class="cls-1" d="M112.82,200.67l-46.22,41.62-42.69-13.87c-12.13-23.63-18.11-50.41-16.58-77.75l33.4-30.07,59.17,19.22,12.93,60.84Z"/>
        <path class="cls-1" d="M310.77,167.42l-33.4,30.07-59.17-19.22-12.93-60.84,46.22-41.62,42.7,13.87c12.12,23.63,18.1,50.42,16.57,77.74Z"/>
        <path class="cls-1" d="M251.54,75.82l-46.22,41.62-59.17-19.22-12.93-60.84,33.43-30.09c13.08.66,26.29,3.04,39.34,7.28,13.09,4.25,25.21,10.11,36.21,17.3l9.34,43.96Z"/>
        <path class="cls-1" d="M184.95,280.75l-33.4,30.07c-13.12-.66-26.37-3.04-39.46-7.29-13.06-4.24-25.14-10.08-36.11-17.23l-9.35-43.99,46.22-41.62,59.17,19.22,12.93,60.84Z"/>
      </g>
    </g>
  </g>
</svg>