<?xml version="1.0" encoding="UTF-8"?>
<svg id="Capa_2" data-name="Capa 2" xmlns="http://www.w3.org/2000/svg" viewBox="0 0 379.36 389.44">
  <defs>
    <style>
      .cls-1 {
        fill: #1d1d1b;
      }

      .cls-2 {
        stroke-linejoin: round;
      }

      .cls-2, .cls-3 {
        fill: none;
        stroke: #1d1d1b;
        stroke-width: 14.17px;
      }

      .cls-3 {
        stroke-miterlimit: 10;
      }
    </style>
  </defs>
  <g id="Capa_4" data-name="Capa 4">
    <g>
      <path class="cls-3" d="M35.61,286.64c-5.01-.86-9.23-4.18-11.28-8.84-8.98-20.44-29.6-79.38-7.06-150.01C42.33,49.25,90.27,36.99,100.2,35.27c.82-.14,1.18-1.1.68-1.75l-14.99-19.43c-1.58-2.04-.39-5.03,2.17-5.42C116.88,4.31,265.83.5,346.25,120.94c56.07,83.96,7.05,208.26-12.86,252.49-3.61,8.02-13.26,11.3-20.98,7.09-19.82-10.81-62.4-31.4-136.35-55.48-82.29-26.8-124.57-35.65-140.44-38.39Z"/>
      <path class="cls-3" d="M25.78,105.32c15.09-1.06,54.21,28.32,54.21,28.32,0,0-14.58,42.5-8.32,85.3,5.74,39.22,29.91,83.44,29.91,83.44"/>
      <path class="cls-2" d="M372.27,196.41c-70.54-68.54-186.7-101.44-216.96-109.11-4.22-1.07-8.53,1.41-9.69,5.61-1.58,5.74-3.72,14.77-5.51,26.85-2.25,15.19-2.43,27.57-2.32,33.96.05,2.86,1.62,5.46,4.13,6.85,24.67,13.62,158.05,90.42,203.92,182.64"/>
      <path class="cls-3" d="M272.99,130.05c6.46,20.59-.19,104.36-4.96,118.77"/>
      <circle class="cls-1" cx="180.27" cy="134.55" r="12.14"/>
    </g>
  </g>
</svg>