<?xml version="1.0" encoding="UTF-8"?>
<svg id="Capa_2" data-name="Capa 2" xmlns="http://www.w3.org/2000/svg" viewBox="0 0 411.29 411.29">
  <defs>
    <style>
      .cls-1 {
        fill: none;
        stroke: #1d1d1b;
        stroke-miterlimit: 10;
        stroke-width: 14.17px;
      }
    </style>
  </defs>
  <g id="Capa_4" data-name="Capa 4">
    <g>
      <g>
        <path class="cls-1" d="M178.04,67.37c3.51-4.25,7.27-8.39,11.27-12.4C245.34-1.05,328.14-9.08,374.25,37.04s38.08,128.91-17.94,184.94-138.82,64.06-184.94,17.94c-27.77-27.77-35.9-68.83-25.75-109.34"/>
        <rect class="cls-1" x="38.76" y="292.57" width="41.93" height="117.98" rx="9.4" ry="9.4" transform="translate(266.09 60.74) rotate(45)"/>
        <g>
          <line class="cls-1" x1="122.6" y1="270.08" x2="92.21" y2="300.62"/>
          <line class="cls-1" x1="141.05" y1="288.53" x2="110.67" y2="319.08"/>
        </g>
        <path class="cls-1" d="M229.85,268.6c-21.85-2.27-69.78.92-88.79,19.94"/>
        <path class="cls-1" d="M142.54,181.29c2.27,21.85-.92,69.78-19.94,88.79"/>
        <ellipse class="cls-1" cx="272.81" cy="138.48" rx="114.48" ry="89.84" transform="translate(-18.01 233.47) rotate(-45)"/>
        <g>
          <line class="cls-1" x1="353.76" y1="57.52" x2="191.86" y2="219.43"/>
          <line class="cls-1" x1="308.34" y1="36.19" x2="170.63" y2="174.51"/>
          <line class="cls-1" x1="374.93" y1="101.9" x2="236.74" y2="240.69"/>
          <line class="cls-1" x1="209.29" y1="74.95" x2="336.34" y2="202"/>
          <line class="cls-1" x1="247.89" y1="47.4" x2="364.5" y2="164.01"/>
          <line class="cls-1" x1="181.74" y1="113.55" x2="297.74" y2="229.55"/>
        </g>
      </g>
      <g>
        <path class="cls-1" d="M163.51,116.05c-9.33,9.33-21.45,14.16-33.67,14.52-13.19.37-26.5-4.46-36.56-14.53-10.06-10.06-14.91-23.38-14.52-36.56.36-12.23,5.2-24.35,14.52-33.67s21.44-14.17,33.67-14.52c13.18-.4,26.5,4.45,36.56,14.52,10.07,10.07,14.91,23.38,14.52,36.57-.35,12.23-5.2,24.35-14.52,33.67Z"/>
        <path class="cls-1" d="M178.03,82.38c-13.19.39-26.5-4.45-36.57-14.52s-14.91-23.38-14.52-36.56"/>
        <path class="cls-1" d="M78.75,79.48c13.19-.4,26.5,4.44,36.57,14.51,10.07,10.07,14.91,23.38,14.52,36.58"/>
      </g>
    </g>
  </g>
</svg>