<?xml version="1.0" encoding="UTF-8"?>
<svg id="Capa_2" data-name="Capa 2" xmlns="http://www.w3.org/2000/svg" viewBox="0 0 390.12 390.12">
  <defs>
    <style>
      .cls-1 {
        fill: none;
        stroke: #1d1d1b;
        stroke-miterlimit: 10;
        stroke-width: 14.17px;
      }
    </style>
  </defs>
  <g id="Capa_4" data-name="Capa 4">
    <g>
      <g>
        <path class="cls-1" d="M129.07,187.66c2.78-7.25,5.96-14.45,9.53-21.57,3.8-7.56,7.93-14.83,12.39-21.76,10.93-17.06,23.74-32.19,37.9-45.21,15.51-14.26,32.63-25.97,50.72-34.88,21.8-10.74,44.99-17.42,68.38-19.54"/>
        <path class="cls-1" d="M340.62,76.15c-21.23,4.63-41.96,12.97-61.27,24.65-17.29,10.43-33.43,23.55-47.8,39.07-14.51,15.68-27.2,33.8-37.4,54.12"/>
        <path class="cls-1" d="M71.6,164.93c3.21-9,7.02-17.93,11.43-26.72,4.84-9.64,10.24-18.78,16.12-27.41,10.43-15.26,22.37-28.89,35.45-40.73,15.55-14.07,32.69-25.62,50.76-34.36,22.11-10.71,45.62-17.23,69.3-19.07"/>
        <path class="cls-1" d="M231.57,314.66c-10.47,1.89-21.24,3.1-32.23,3.56-9.83.41-19.53.22-29.06-.56-18.51-1.48-36.36-5.13-53.19-10.66-20.13-6.6-38.81-15.88-55.49-27.4-20.28-13.99-37.59-31.24-50.92-50.95"/>
        <path class="cls-1" d="M9.31,168.32c13.26,19.11,30.28,35.87,50.13,49.48,16.73,11.48,35.46,20.72,55.63,27.28,18.32,5.96,37.83,9.69,58.09,10.84,7.75.45,15.62.5,23.58.18,8.57-.35,17-1.17,25.27-2.41"/>
        <path class="cls-1" d="M21.11,124.39c14.21,15.86,31.29,29.57,50.49,40.53,17.55,10.02,36.89,17.75,57.47,22.74,20.64,5.01,42.52,7.27,65.09,6.33"/>
        <path class="cls-1" d="M279.35,100.8c6.81,7.92,13.19,16.41,19.06,25.46,5.99,9.22,11.25,18.69,15.78,28.33,7.87,16.69,13.55,33.89,17.11,51.15,4.24,20.49,5.49,41.06,3.87,61.03-2.03,25.29-8.68,49.59-19.71,71.49"/>
        <path class="cls-1" d="M231.55,139.87c5.2,6.39,10.12,13.16,14.73,20.25,4.67,7.19,8.9,14.53,12.67,21.98,9.17,18.06,15.74,36.76,19.8,55.56,4.45,20.56,5.88,41.24,4.42,61.32-1.77,24.44-7.84,48-18,69.39"/>
        <path class="cls-1" d="M221.85,380.05c6.75-20.68,10.04-42.8,9.72-65.39-.28-20.18-3.43-40.74-9.56-60.97-6.2-20.47-15.45-40.61-27.86-59.7"/>
      </g>
      <circle class="cls-1" cx="195.06" cy="195.06" r="187.97"/>
    </g>
  </g>
</svg>